<?xml version="1.0" encoding="UTF-8"?>
<svg width="81px" height="103px" viewBox="0 0 81 103" version="1.1" xmlns="http://www.w3.org/2000/svg" xmlns:xlink="http://www.w3.org/1999/xlink">
    <!-- Generator: Sketch 64 (93537) - https://sketch.com -->
    <title>app</title>
    <desc>Created with Sketch.</desc>
    <g id="Page-1" stroke="none" stroke-width="1" fill="none" fill-rule="evenodd">
        <g id="app" fill-rule="nonzero">
            <path d="M45.8784,74.1855502 C44.8588779,75.3968922 43.3978817,76.1516115 41.8194649,76.2823091 C40.2410481,76.4130066 38.6756929,75.908878 37.4706,74.8817407 L15.5844,56.295074 C3.02791254,45.6133249 1.47110035,26.7978268 12.1014,14.199836 L14.4504,11.4312645 C25.1428113,-1.10930894 43.9620816,-2.66460295 56.5704,7.95031214 L78.4728,26.5207883 C79.6858761,27.5425845 80.4414106,29.0054664 80.5721523,30.5855987 C80.7028939,32.165731 80.1980583,33.7327746 79.1694,34.939836 L78.6834,35.5065026 C77.6671694,36.7119893 76.2122337,37.4631397 74.6404376,37.5937925 C73.0686416,37.7244453 71.5095328,37.2238321 70.308,36.2026931 L49.3938,18.5065026 C42.2908132,12.5411549 31.7036421,13.415673 25.677,20.4655502 L23.0688,23.5741217 C17.0908358,30.6700327 17.9664684,41.2582346 25.029,47.2769788 L45.8946,64.9245979 C48.4127583,67.0574249 48.7246066,70.8263959 46.5912,73.3436455 L45.8784,74.1855502 Z" id="Path" fill="#FFFFFF"></path>
            <path d="M35.3322,29.3541217 C37.5038758,26.8768745 41.2719454,26.6234035 43.7562,28.787455 L65.367,47.6817407 C77.7273039,58.5456591 79.0074587,77.3391382 68.2344,89.7769788 L65.8368,92.5293598 C54.9664911,104.882397 36.161957,106.161799 23.7168,95.395074 L2.0412,76.5493598 C-0.437504399,74.3789607 -0.69112447,70.6131063 1.4742,68.1303121 L1.9602,67.5636455 C2.9951431,66.3720792 4.46285476,65.6422376 6.03806277,65.5358672 C7.61327078,65.4294968 9.1658788,65.9553827 10.3518,66.9969788 L31.0068,84.9845979 C38.0160535,91.0628869 48.6219987,90.3393572 54.7398,83.3655502 L57.4128,80.2407883 C63.485582,73.232617 62.7621241,62.6401893 55.7928,56.5217407 L35.1864,38.615074 C33.9887493,37.5744519 33.2542902,36.1005825 33.1448934,34.5182988 C33.0354966,32.936015 33.5601418,31.3751953 34.6032,30.179836 L35.3322,29.3541217 Z" id="Path" fill="#F7F7F7"></path>
        </g>
    </g>
</svg>